<svg xmlns="http://www.w3.org/2000/svg" viewBox="0 0 232 199"><defs><style>.cls-1{fill:#c4c4c4;}.cls-2{fill:#f60a14;}</style></defs><g id="Layer_2" data-name="Layer 2"><g id="Layer_1-2" data-name="Layer 1"><polygon class="cls-1" points="232 0 76 0 0 132 154.5 132 174.01 99 58.5 99 96.5 31.5 211.5 32.5 232 0"/><polygon class="cls-2" points="116 66 230 66 154 199 135 165 174 99 96.94 99 116 66"/><path class="cls-1" d="M15.42,148a.58.58,0,0,1-.17.3,5.37,5.37,0,0,1-4.25,2,5.16,5.16,0,0,1-4.21-1.93,7.51,7.51,0,0,1,0-9A5.21,5.21,0,0,1,11,137.44a5,5,0,0,1,4.12,1.8.52.52,0,0,1,.14.31,3,3,0,0,1-.46.88c-.31.49-.5.74-.57.74s-.25-.15-.53-.43a4.66,4.66,0,0,0-1-.8,3.38,3.38,0,0,0-1.67-.43,3.15,3.15,0,0,0-2.7,1.33,4.93,4.93,0,0,0-.87,3,5.07,5.07,0,0,0,.86,3,3.11,3.11,0,0,0,2.7,1.37,3.57,3.57,0,0,0,1.66-.43,5.22,5.22,0,0,0,1.07-.8,3,3,0,0,1,.5-.44,4.62,4.62,0,0,1,.58.7A5.27,5.27,0,0,1,15.42,148Z"/><path class="cls-1" d="M27.93,149.84c0,.14-.09.2-.27.2l-.46,0-.47,0-.5,0-.51,0c-.14,0-.2-.06-.2-.2,0-.53,0-1.32.05-2.37s0-1.85,0-2.38c0-.22-.06-.36-.2-.39a28.83,28.83,0,0,0-3-.07,29.12,29.12,0,0,0-3,.07c-.13,0-.19.17-.19.39,0,.52,0,1.3,0,2.33s0,1.82,0,2.33c0,.2-.07.29-.22.29l-.5,0-.5,0-.47,0-.47,0c-.14,0-.22-.06-.22-.2,0-.64,0-1.61.1-2.9S17,144.68,17,144s0-1.7-.09-3.06-.1-2.39-.1-3.06c0-.13.08-.2.22-.2l.49,0c.21,0,.38,0,.49,0s.27,0,.49,0l.49,0c.14,0,.2,0,.2.16,0,.5,0,1.26-.06,2.27s-.07,1.77-.07,2.27c0,.17.06.27.19.3a24.59,24.59,0,0,0,3.09.08,25.23,25.23,0,0,0,3.08-.08c.13,0,.2-.16.2-.38,0-.49,0-1.23,0-2.22s-.05-1.73-.05-2.22c0-.12.07-.18.2-.18l.49,0c.22,0,.38,0,.49,0s.26,0,.48,0l.47,0c.15,0,.23.07.23.2,0,.67,0,1.7-.09,3.06s-.09,2.38-.09,3.06,0,1.61.1,2.91S27.93,149.2,27.93,149.84Z"/><path class="cls-1" d="M32.59,149.86c0,.12-.08.18-.25.18l-.48,0-.49,0-.49,0-.48,0c-.15,0-.22-.06-.22-.2,0-.67,0-1.67.09-3s.09-2.35.09-3,0-1.62-.09-2.93-.09-2.28-.09-2.93c0-.14.06-.22.2-.22l.51,0c.23,0,.4,0,.52,0a4.67,4.67,0,0,0,.47,0l.48,0c.15,0,.23.06.23.18,0,.65,0,1.64-.07,3s-.08,2.3-.08,2.95,0,1.69.08,3S32.59,149.18,32.59,149.86Z"/><path class="cls-1" d="M44.39,150c0,.05,0,.07-.14.07l-.51,0-.51,0-.55,0-.55,0a.34.34,0,0,1-.31-.22c-.18-.4-.72-1.63-1.59-3.7a.73.73,0,0,0-.65-.38h-.8c-.8,0-1.29,0-1.44,0s-.18.17-.18.45,0,1,.05,1.84.06,1.43.06,1.83c0,.13-.06.19-.17.19a4.51,4.51,0,0,1-.54,0,4.26,4.26,0,0,0-.54,0l-.45,0-.46,0c-.15,0-.22-.06-.22-.2,0-.65,0-1.63.09-2.93s.09-2.28.09-2.93c0-1.85-.06-3.83-.2-5.93v-.14c0-.11.12-.17.37-.17l2.27,0c1,0,1.75,0,2.25,0a4.92,4.92,0,0,1,3.13.93,3.51,3.51,0,0,1,1.3,2.92,5,5,0,0,1-.35,2.05,4.11,4.11,0,0,1-1.37,1.5c-.11.08-.17.15-.17.22s.35.86,1.05,2.34A23.14,23.14,0,0,1,44.39,150ZM42,142a2.26,2.26,0,0,0-.91-2.13,5.31,5.31,0,0,0-2.44-.39c-.94,0-1.43.07-1.45.23,0,.31-.06,1.16-.06,2.54v1.68l.12,0,.52,0c.55,0,1.15.05,1.8.05C41.17,144.05,42,143.37,42,142Z"/><path class="cls-1" d="M56.91,149.94c0,.07-.07.1-.21.1l-.49,0-.49,0-.5,0-.5,0c-.16,0-.37-.44-.63-1.33s-.51-1.34-.78-1.35-.78,0-1.69,0H50.23c-1,0-1.52,0-1.65,0s-.44.47-.68,1.36-.42,1.32-.55,1.32h-2q-.18,0-.18-.12a1.59,1.59,0,0,1,.12-.4l2.16-5.88q.27-.72,1.65-4.11c.16-.37.39-.94.67-1.7.07-.22.14-.33.23-.33l.49,0a4.21,4.21,0,0,0,.49.05,3.89,3.89,0,0,0,.48-.05,4,4,0,0,1,.47,0s.13.11.22.33.83,2.09,2.08,5.3C56,147.62,56.91,149.9,56.91,149.94Zm-4.1-4.85A14.18,14.18,0,0,0,52,142.8q-.77-2-1.08-2.58-1.81,4.64-1.82,4.86c0,.2.22.31.67.35h1.77C52.39,145.44,52.81,145.32,52.81,145.09Z"/><path class="cls-1" d="M69.11,149.61c0,.13-.06.2-.22.2a2.26,2.26,0,0,1-.64-.26,4.57,4.57,0,0,1-.64-.35,6.7,6.7,0,0,1-3.84,1.1,5.37,5.37,0,0,1-4.25-1.94,6.57,6.57,0,0,1-1.58-4.45,6.78,6.78,0,0,1,1.55-4.52,5.36,5.36,0,0,1,4.28-1.93,5.71,5.71,0,0,1,2.61.63,5.23,5.23,0,0,1,2,1.75.49.49,0,0,1,.11.25,2.89,2.89,0,0,1-.62.82c-.42.46-.66.69-.73.69s-.22-.18-.54-.54a5.59,5.59,0,0,0-1.07-1,2.93,2.93,0,0,0-1.67-.54,3.27,3.27,0,0,0-2.72,1.39,5,5,0,0,0,0,6,3.32,3.32,0,0,0,2.72,1.4,5.32,5.32,0,0,0,2.95-.88c0-.16-.06-.72-.15-1.67-.07-.68-.1-1.24-.1-1.66,0-.1.06-.15.19-.15s.28,0,.5,0l.5,0c.11,0,.28,0,.51,0h.51c.13,0,.19.09.19.28s0,.51,0,.92,0,.73,0,.93c0,.85.06,2,.17,3.43Z"/><path class="cls-1" d="M86.66,149.61c0,.13-.07.2-.22.2a2.26,2.26,0,0,1-.64-.26,4.92,4.92,0,0,1-.65-.35,6.66,6.66,0,0,1-3.83,1.1,5.37,5.37,0,0,1-4.25-1.94,6.53,6.53,0,0,1-1.59-4.45A6.73,6.73,0,0,1,77,139.39a5.35,5.35,0,0,1,4.28-1.93,5.77,5.77,0,0,1,2.61.63,5.31,5.31,0,0,1,2,1.75.6.6,0,0,1,.11.25c0,.09-.21.36-.63.82s-.66.69-.72.69-.23-.18-.54-.54a5.59,5.59,0,0,0-1.07-1,2.93,2.93,0,0,0-1.67-.54,3.29,3.29,0,0,0-2.73,1.39,4.8,4.8,0,0,0-1,3,4.74,4.74,0,0,0,1,3,3.32,3.32,0,0,0,2.72,1.4,5.34,5.34,0,0,0,2.95-.88c0-.16-.06-.72-.15-1.67-.07-.68-.11-1.24-.11-1.66,0-.1.07-.15.2-.15s.28,0,.5,0l.5,0c.11,0,.28,0,.51,0h.51c.12,0,.18.09.18.28s0,.51,0,.92,0,.73,0,.93c0,.85.06,2,.17,3.43Z"/><path class="cls-1" d="M98.57,137.91c0,.67,0,1.69-.09,3.05s-.08,2.37-.08,3c0,.23,0,.56,0,1s0,.77,0,1a6.51,6.51,0,0,1-.35,2.55A2.89,2.89,0,0,1,96,150a11.79,11.79,0,0,1-2.63.23c-2.05,0-3.4-.34-4-1-.49-.52-.73-1.58-.73-3.16,0-.19,0-.52,0-1V144c0-.69,0-2-.08-3.82,0-.48,0-1.2-.08-2.15a1,1,0,0,1,0-.14c0-.13.07-.19.23-.19h1.94c.13,0,.2.05.2.16,0,.89,0,2.23-.06,4s0,3.13,0,4A2.52,2.52,0,0,0,91.4,148a3.5,3.5,0,0,0,2.14.47,4,4,0,0,0,2-.38,2,2,0,0,0,.76-1.81c0-.93,0-2.32,0-4.17s0-3.25,0-4.17c0-.1.09-.16.26-.18a2.2,2.2,0,0,1,.52,0l.39,0c.1,0,.26,0,.48,0l.48,0C98.49,137.71,98.57,137.78,98.57,137.91Z"/><path class="cls-1" d="M110.33,150c0,.05,0,.07-.14.07l-.51,0-.51,0-.55,0-.55,0a.33.33,0,0,1-.31-.22c-.19-.4-.72-1.63-1.6-3.7a.72.72,0,0,0-.64-.38h-.8q-1.22,0-1.44,0c-.12,0-.19.17-.19.45s0,1,.06,1.84.06,1.43.06,1.83c0,.13-.06.19-.18.19a4.52,4.52,0,0,1-.53,0,4.51,4.51,0,0,0-.54,0l-.46,0-.45,0c-.15,0-.22-.06-.22-.2,0-.65,0-1.63.09-2.93s.09-2.28.09-2.93q0-2.78-.2-5.93v-.14c0-.11.12-.17.37-.17l2.26,0c1,0,1.76,0,2.26,0a4.92,4.92,0,0,1,3.13.93,3.53,3.53,0,0,1,1.3,2.92,5,5,0,0,1-.35,2.05,4.15,4.15,0,0,1-1.38,1.5c-.11.08-.16.15-.16.22s.35.86,1,2.34A23.14,23.14,0,0,1,110.33,150Zm-2.41-8a2.26,2.26,0,0,0-.91-2.13,5.37,5.37,0,0,0-2.44-.39c-.95,0-1.43.07-1.45.23,0,.31-.06,1.16-.06,2.54v1.68l.11,0,.52,0c.56,0,1.16.05,1.8.05C107.11,144.05,107.92,143.37,107.92,142Z"/><path class="cls-1" d="M115,137.91q0,.85-.06,2.58c0,1.15-.07,2-.07,2.59,0,.28,0,.7,0,1.25s0,1,0,1.24a11.13,11.13,0,0,1-.36,3.12,5,5,0,0,1-1.69,2.59.47.47,0,0,1-.24.13.21.21,0,0,1-.14-.09q-.63-.7-1.23-1.26c0-.05-.08-.09-.08-.13a.22.22,0,0,1,.1-.16A8.19,8.19,0,0,0,112,149a3.08,3.08,0,0,0,.49-1,15.5,15.5,0,0,0,.22-3.33v-1.33c0-.55,0-1.44-.11-2.66s-.1-2.07-.1-2.67a.22.22,0,0,1,.25-.25l.5,0,.51,0,.49,0,.48,0C114.9,137.73,115,137.79,115,137.91Z"/><path class="cls-1" d="M128.1,149.94c0,.07-.07.1-.21.1l-.48,0-.49,0-.5,0-.5,0c-.17,0-.38-.44-.63-1.33s-.52-1.34-.78-1.35-.78,0-1.7,0h-1.39c-1,0-1.51,0-1.65,0s-.43.47-.67,1.36-.42,1.32-.55,1.32h-2c-.11,0-.17,0-.17-.12a1.59,1.59,0,0,1,.12-.4l2.15-5.88c.18-.48.74-1.85,1.66-4.11.16-.37.38-.94.66-1.7.07-.22.15-.33.23-.33l.49,0a4.13,4.13,0,0,0,.5.05,4,4,0,0,0,.47-.05,4.3,4.3,0,0,1,.48,0s.12.11.22.33.83,2.09,2.08,5.3C127.22,147.62,128.1,149.9,128.1,149.94ZM124,145.09a15.45,15.45,0,0,0-.79-2.29q-.77-2-1.08-2.58c-1.22,3.09-1.82,4.71-1.82,4.86s.22.31.66.35h1.77C123.59,145.44,124,145.32,124,145.09Z"/><path class="cls-1" d="M139.05,150c0,.05-.05.07-.14.07l-.51,0-.51,0-.55,0-.55,0a.33.33,0,0,1-.31-.22c-.19-.4-.72-1.63-1.6-3.7a.72.72,0,0,0-.64-.38h-.8q-1.22,0-1.44,0c-.12,0-.19.17-.19.45s0,1,.06,1.84.06,1.43.06,1.83c0,.13-.06.19-.18.19a4.52,4.52,0,0,1-.53,0,4.51,4.51,0,0,0-.54,0l-.46,0-.45,0c-.15,0-.22-.06-.22-.2,0-.65,0-1.63.09-2.93s.09-2.28.09-2.93q0-2.78-.2-5.93v-.14c0-.11.12-.17.37-.17l2.26,0c1,0,1.76,0,2.26,0a4.92,4.92,0,0,1,3.13.93,3.53,3.53,0,0,1,1.3,2.92,5,5,0,0,1-.35,2.05,4.15,4.15,0,0,1-1.38,1.5c-.11.08-.16.15-.16.22s.35.86,1.05,2.34A23.14,23.14,0,0,1,139.05,150Zm-2.41-8a2.29,2.29,0,0,0-.91-2.13,5.37,5.37,0,0,0-2.44-.39c-.95,0-1.43.07-1.45.23,0,.31-.06,1.16-.06,2.54v1.68l.11,0,.52,0c.56,0,1.16.05,1.8.05C135.83,144.05,136.64,143.37,136.64,142Z"/></g></g></svg>